<svg width="168" height="30" viewBox="0 0 168 30" fill="none" xmlns="http://www.w3.org/2000/svg">
  <!-- Larger modern geometric car icon (blue) placed left -->
  <g transform="translate(0,2)">
    <rect x="0" y="6" width="48" height="12" rx="5" fill="#2563EB"/>
    <path d="M8 6 L16 1.2 L36 1.2 L44 6 Z" fill="#2563EB"/>
    <circle cx="12" cy="20" r="3.6" fill="#2563EB"/>
    <circle cx="36" cy="20" r="3.6" fill="#2563EB"/>
    <rect x="10" y="10" width="28" height="1.8" rx="0.9" fill="#ffffff" opacity="0.06"/>
  </g>

  <g transform="translate(20,0)">
  <path d="M44.672 24.264C43.408 24.264 42.232 24.048 41.144 23.616C40.072 23.168 39.128 22.544 38.312 21.744C37.512 20.944 36.888 20.016 36.44 18.96C35.992 17.888 35.768 16.736 35.768 15.504C35.768 14.272 35.992 13.128 36.44 12.072C36.888 11 37.512 10.072 38.312 9.288C39.112 8.504 40.048 7.896 41.12 7.464C42.208 7.016 43.384 6.792 44.648 6.792C45.992 6.792 47.184 7.008 48.224 7.44C49.28 7.872 50.2 8.464 50.984 9.216L48.464 11.76C48.016 11.28 47.472 10.904 46.832 10.632C46.208 10.36 45.48 10.224 44.648 10.224C43.912 10.224 43.232 10.352 42.608 10.608C42 10.848 41.472 11.2 41.024 11.664C40.592 12.128 40.248 12.688 39.992 13.344C39.752 14 39.632 14.72 39.632 15.504C39.632 16.304 39.752 17.032 39.992 17.688C40.248 18.344 40.592 18.904 41.024 19.368C41.472 19.832 42 20.192 42.608 20.448C43.232 20.704 43.912 20.832 44.648 20.832C45.512 20.832 46.264 20.696 46.904 20.424C47.544 20.152 48.096 19.776 48.56 19.296L51.104 21.84C50.288 22.592 49.352 23.184 48.296 23.616C47.256 24.048 46.048 24.264 44.672 24.264ZM57.4336 24.24C56.3616 24.24 55.4016 23.976 54.5536 23.448C53.7216 22.92 53.0576 22.2 52.5616 21.288C52.0816 20.376 51.8416 19.336 51.8416 18.168C51.8416 17 52.0816 15.96 52.5616 15.048C53.0576 14.136 53.7216 13.416 54.5536 12.888C55.4016 12.36 56.3616 12.096 57.4336 12.096C58.2176 12.096 58.9216 12.248 59.5456 12.552C60.1856 12.856 60.7056 13.28 61.1056 13.824C61.5056 14.352 61.7296 14.96 61.7776 15.648V20.688C61.7296 21.376 61.5056 21.992 61.1056 22.536C60.7216 23.064 60.2096 23.48 59.5696 23.784C58.9296 24.088 58.2176 24.24 57.4336 24.24ZM58.1776 20.928C58.9616 20.928 59.5936 20.672 60.0736 20.16C60.5536 19.632 60.7936 18.968 60.7936 18.168C60.7936 17.624 60.6816 17.144 60.4576 16.728C60.2496 16.312 59.9456 15.992 59.5456 15.768C59.1616 15.528 58.7136 15.408 58.2016 15.408C57.6896 15.408 57.2336 15.528 56.8336 15.768C56.4496 15.992 56.1376 16.312 55.8976 16.728C55.6736 17.144 55.5616 17.624 55.5616 18.168C55.5616 18.696 55.6736 19.168 55.8976 19.584C56.1216 20 56.4336 20.328 56.8336 20.568C57.2336 20.808 57.6816 20.928 58.1776 20.928ZM60.6496 24V20.856L61.2016 18.024L60.6496 15.192V12.336H64.2496V24H60.6496ZM66.8351 24V12.336H70.5071V24H66.8351ZM70.5071 17.592L68.9711 16.392C69.2751 15.032 69.7871 13.976 70.5071 13.224C71.2271 12.472 72.2271 12.096 73.5071 12.096C74.0671 12.096 74.5551 12.184 74.9711 12.36C75.4031 12.52 75.7791 12.776 76.0991 13.128L73.9151 15.888C73.7551 15.712 73.5551 15.576 73.3151 15.48C73.0751 15.384 72.8031 15.336 72.4991 15.336C71.8911 15.336 71.4031 15.528 71.0351 15.912C70.6831 16.28 70.5071 16.84 70.5071 17.592ZM80.7151 17.016V14.232H84.2911C85.0431 14.232 85.6191 14.04 86.0191 13.656C86.4351 13.272 86.6431 12.752 86.6431 12.096C86.6431 11.488 86.4431 10.984 86.0431 10.584C85.6431 10.184 85.0671 9.984 84.3151 9.984H80.7151V7.056H84.7471C85.8671 7.056 86.8511 7.272 87.6991 7.704C88.5471 8.12 89.2111 8.704 89.6911 9.456C90.1711 10.208 90.4111 11.072 90.4111 12.048C90.4111 13.04 90.1711 13.912 89.6911 14.664C89.2111 15.4 88.5391 15.976 87.6751 16.392C86.8111 16.808 85.7951 17.016 84.6271 17.016H80.7151ZM77.8351 24V7.056H81.6031V24H77.8351ZM87.0511 24L81.7711 16.704L85.2271 15.768L91.5151 24H87.0511ZM98.2826 24.264C97.0186 24.264 95.8906 24.008 94.8986 23.496C93.9226 22.968 93.1546 22.24 92.5946 21.312C92.0346 20.384 91.7546 19.336 91.7546 18.168C91.7546 17 92.0266 15.96 92.5706 15.048C93.1306 14.12 93.8826 13.392 94.8266 12.864C95.7706 12.336 96.8346 12.072 98.0186 12.072C99.1706 12.072 100.187 12.32 101.067 12.816C101.947 13.312 102.635 14 103.131 14.88C103.643 15.76 103.899 16.768 103.899 17.904C103.899 18.112 103.883 18.336 103.851 18.576C103.835 18.8 103.795 19.064 103.731 19.368L93.6746 19.392V16.872L102.171 16.848L100.587 17.904C100.571 17.232 100.467 16.68 100.275 16.248C100.083 15.8 99.7946 15.464 99.4106 15.24C99.0426 15 98.5866 14.88 98.0426 14.88C97.4666 14.88 96.9626 15.016 96.5306 15.288C96.1146 15.544 95.7866 15.912 95.5466 16.392C95.3226 16.872 95.2106 17.456 95.2106 18.144C95.2106 18.832 95.3306 19.424 95.5706 19.92C95.8266 20.4 96.1786 20.776 96.6266 21.048C97.0906 21.304 97.6346 21.432 98.2586 21.432C98.8346 21.432 99.3546 21.336 99.8186 21.144C100.283 20.936 100.691 20.632 101.043 20.232L103.059 22.248C102.483 22.92 101.787 23.424 100.971 23.76C100.155 24.096 99.2586 24.264 98.2826 24.264ZM113.375 24V17.352C113.375 16.744 113.183 16.256 112.799 15.888C112.431 15.504 111.959 15.312 111.383 15.312C110.983 15.312 110.631 15.4 110.327 15.576C110.023 15.736 109.783 15.976 109.607 16.296C109.431 16.6 109.343 16.952 109.343 17.352L107.927 16.656C107.927 15.744 108.127 14.944 108.527 14.256C108.927 13.568 109.479 13.04 110.183 12.672C110.903 12.288 111.711 12.096 112.607 12.096C113.471 12.096 114.231 12.304 114.887 12.72C115.559 13.12 116.087 13.656 116.471 14.328C116.855 15 117.047 15.736 117.047 16.536V24H113.375ZM105.671 24V12.336H109.343V24H105.671ZM120.921 24V7.512H124.593V24H120.921ZM118.281 15.456V12.336H127.233V15.456H118.281ZM133.488 24.24C132.416 24.24 131.456 23.976 130.608 23.448C129.776 22.92 129.112 22.2 128.616 21.288C128.136 20.376 127.896 19.336 127.896 18.168C127.896 17 128.136 15.96 128.616 15.048C129.112 14.136 129.776 13.416 130.608 12.888C131.456 12.36 132.416 12.096 133.488 12.096C134.272 12.096 134.976 12.248 135.6 12.552C136.24 12.856 136.76 13.28 137.16 13.824C137.56 14.352 137.784 14.96 137.832 15.648V20.688C137.784 21.376 137.56 21.992 137.16 22.536C136.776 23.064 136.264 23.48 135.624 23.784C134.984 24.088 134.272 24.24 133.488 24.24ZM134.232 20.928C135.016 20.928 135.648 20.672 136.128 20.16C136.608 19.632 136.848 18.968 136.848 18.168C136.848 17.624 136.736 17.144 136.512 16.728C136.304 16.312 136 15.992 135.6 15.768C135.216 15.528 134.768 15.408 134.256 15.408C133.744 15.408 133.288 15.528 132.888 15.768C132.504 15.992 132.192 16.312 131.952 16.728C131.728 17.144 131.616 17.624 131.616 18.168C131.616 18.696 131.728 19.168 131.952 19.584C132.176 20 132.488 20.328 132.888 20.568C133.288 20.808 133.736 20.928 134.232 20.928ZM136.704 24V20.856L137.256 18.024L136.704 15.192V12.336H140.304V24H136.704ZM142.89 24V6.576H146.562V24H142.89Z" fill="#414141"/>
  </g>
</svg>