<?xml version="1.0" encoding="UTF-8"?>
<svg width="180px" height="30px" viewBox="0 0 180 30" xmlns="http://www.w3.org/2000/svg">
  <g id="icon" transform="translate(-2,1) scale(0.85)">
    <path d="M 26.09 -1.50 L 24.85 -0.97 L 23.61 0.63 L 23.43 10.21 L 23.78 11.46 L 24.67 12.52 L 26.62 13.23 L 27.69 13.05 L 28.04 13.41 L 28.04 19.98 L 29.82 21.75 L 29.64 22.99 L 28.04 24.59 L 28.04 28.50 L 31.24 31.51 L 31.95 31.87 L 32.84 31.87 L 33.55 31.51 L 36.39 28.67 L 36.56 28.14 L 36.56 13.41 L 37.10 13.05 L 38.87 13.05 L 39.58 12.70 L 40.82 11.28 L 41.00 0.98 L 40.47 -0.26 L 38.52 -1.50 Z" fill="#2563EB" />
    <path d="M 20.94 1.34 L 14.91 1.34 L 9.76 2.05 L 7.10 5.24 L 4.79 10.39 L 0.71 10.39 L 0.00 10.92 L 0.18 12.88 L 2.66 14.30 L 1.95 16.25 L 1.95 24.59 L 2.48 25.66 L 3.73 26.54 L 3.73 30.27 L 4.26 30.80 L 8.87 30.63 L 9.41 26.54 L 25.56 26.54 L 25.56 24.06 L 26.62 22.46 L 25.74 20.69 L 24.67 21.04 L 15.62 21.04 L 14.02 20.33 L 12.42 18.20 L 12.96 17.14 L 25.56 17.14 L 25.56 15.36 L 22.90 13.94 L 21.12 11.46 L 12.78 11.28 L 6.92 10.57 L 8.70 6.66 L 11.00 3.65 L 13.49 3.11 L 20.94 2.94 Z" fill="#2563EB" />
  </g>
  <g transform="translate(38, 15)">
    <text
      x="0"
      y="0"
      font-family="Arial, Helvetica, sans-serif"
      font-size="14"
      font-weight="700"
      letter-spacing="0.5"
      dominant-baseline="middle"
      fill="#2563EB"
    >Car-Rental</text>
  </g>
</svg>